<svg xmlns="http://www.w3.org/2000/svg" viewBox="200 335 360 340">
<g transform="translate(0.000000,1024.000000) scale(0.100000,-0.100000)"
fill="#CF8523" stroke="none">
<path d="M4696 6674 c-89 -20 -204 -66 -269 -108 -101 -64 -186 -148 -453
-442 -148 -164 -361 -400 -474 -524 -113 -124 -340 -374 -505 -555 -164 -182
-363 -400 -440 -485 -384 -422 -550 -613 -573 -655 -10 -19 -16 -54 -17 -95 0
-179 177 -291 333 -211 21 11 208 186 417 389 l380 370 105 22 c157 33 298 83
465 165 370 181 635 410 799 690 79 135 112 240 160 504 28 158 110 275 238
340 94 47 177 61 374 61 94 0 173 2 176 5 3 3 -12 23 -33 44 -33 32 -39 45
-39 79 0 51 44 106 91 116 17 3 28 10 24 16 -4 7 -13 6 -26 -1 -16 -8 -25 -7
-37 4 -31 28 -86 31 -136 8 -36 -15 -46 -25 -46 -43 0 -13 -12 -48 -26 -76
-43 -86 -138 -127 -232 -101 -56 16 -127 82 -140 131 l-8 33 -152 3 c-92 1
-160 -2 -172 -8 -11 -6 -24 -29 -30 -51 -9 -33 -15 -40 -33 -37 -19 3 -22 9
-21 46 1 35 7 50 33 75 l31 32 172 5 171 5 10 30 c46 145 251 183 350 65 14
-16 28 -39 32 -49 5 -18 8 -19 40 -5 19 8 56 14 82 14 l48 1 -48 44 c-62 57
-133 97 -232 131 -101 34 -280 43 -389 18z"/>
<path d="M4945 6521 c-45 -20 -85 -84 -85 -138 0 -73 93 -152 163 -139 129 24
169 165 73 255 -28 26 -113 39 -151 22z"/>
</g>
</svg>
