<?xml version="1.0" encoding="UTF-8"?>
<svg version="1.1" xmlns="http://www.w3.org/2000/svg" viewBox="190 330 420 370" width="32" height="32">
<path d="M0 0 C1.64162109 0.495 1.64162109 0.495 3.31640625 1 C13.108523 4.21122275 21.83658645 8.45695854 29 16 C32.15263685 15.26151551 32.15263685 15.26151551 33.8125 12.625 C37.13993354 8.63207975 40.2508922 7.2267362 45.375 6.5625 C51.37609516 7.28677011 55.99208279 9.486008 59.9375 14.125 C62.88072404 18.22767593 63.11589576 20.10579826 63.0625 25.125 C63.05347656 26.22070312 63.04445313 27.31640625 63.03515625 28.4453125 C63.01775391 29.70988281 63.01775391 29.70988281 63 31 C64.2375 31.309375 64.2375 31.309375 65.5 31.625 C71.45383981 33.9640085 76.82948549 38.13439974 81 43 C81 43.66 81 44.32 81 45 C79.37501495 46.06639644 77.69403834 47.04710343 76 48 C75.43023438 48.39574219 74.86046875 48.79148437 74.2734375 49.19921875 C65.37907091 55.29350697 55.65917271 56.97043863 45 56 C42.98910922 55.36694179 40.98536627 54.70905938 39 54 C30.80786659 54.56141893 24.49393493 60.47335032 18.9140625 66.10546875 C6.71702143 80.81366534 3.38200854 98.17139353 1.7043457 116.62744141 C-1.60789906 152.83526771 -19.66528398 182.02758669 -46.84326172 205.59863281 C-75.1560207 229.03578073 -110.80176686 238.46221484 -147 236 C-155.88930758 234.97198484 -164.62340667 233.15459697 -173.2734375 230.88671875 C-176.46680648 230.126871 -179.17400526 229.7024018 -182.4375 229.6875 C-183.28183594 229.67074219 -184.12617188 229.65398437 -184.99609375 229.63671875 C-196.50258825 231.0282714 -202.38118018 237.68696573 -210.0625 245.75 C-211.77058584 247.51603226 -213.48304277 249.27767551 -215.19786072 251.03717041 C-216.25690601 252.12664877 -217.3114892 253.22049263 -218.36036682 254.31976318 C-221.73491569 257.827962 -225.29404066 261.02919128 -228.97694397 264.21020508 C-232.24726014 267.10344935 -235.31298988 270.18979169 -238.38671875 273.2890625 C-239.05161819 273.95537689 -239.71651764 274.62169128 -240.40156555 275.30819702 C-242.49926759 277.4114317 -244.59344856 279.5181313 -246.6875 281.625 C-248.10197896 283.04450462 -249.51669068 284.46377735 -250.93164062 285.8828125 C-253.52707579 288.48636335 -256.12117463 291.09122911 -258.71362305 293.69775391 C-259.27459686 294.26098862 -259.83557068 294.82422333 -260.4135437 295.40452576 C-261.87721926 296.87652134 -263.33593515 298.35344413 -264.79418945 299.83081055 C-266.91883863 301.92018608 -269.01360723 303.55471038 -271.5 305.1875 C-272.2321875 305.67605469 -272.964375 306.16460938 -273.71875 306.66796875 C-279.46526397 310.02338188 -284.42840255 310.811432 -291 310 C-298.36355247 307.63497013 -303.07041767 302.99180338 -306.8125 296.3125 C-309.65874129 290.21341151 -310.18183409 285.1261722 -308.32421875 278.640625 C-305.24306678 271.36006514 -299.68972693 266.06477875 -294.28515625 260.46484375 C-291.41299983 257.47875873 -288.77215369 254.36593097 -286.1875 251.125 C-282.97131533 247.10917892 -279.5803677 243.47077668 -275.89453125 239.88671875 C-273.40498825 237.40744191 -271.12483647 234.77746263 -268.83203125 232.1171875 C-263.5504831 226.01356469 -258.07950848 220.07379622 -252.625 214.125 C-252.16311279 213.6211377 -251.70122559 213.11727539 -251.2253418 212.59814453 C-248.9154631 210.08053286 -246.60077114 207.56761522 -244.27734375 205.0625 C-238.77830906 199.11246534 -233.45226095 193.05083704 -228.21044922 186.87304688 C-225.13408819 183.26662692 -221.96498107 179.84294821 -218.5546875 176.546875 C-216.26373657 174.26743638 -214.1909821 171.81414176 -212.08203125 169.3671875 C-209.43954273 166.36278216 -206.72180266 163.43246072 -204 160.5 C-200.78825847 157.03727209 -197.58896567 153.57350931 -194.5 150 C-189.47996326 144.20203989 -184.21399708 138.62293803 -179 133 C-172.73853096 126.24010556 -166.49965259 119.46506671 -160.3515625 112.6015625 C-157.55067546 109.50290673 -154.71418951 106.43852054 -151.875 103.375 C-148.15186804 99.35623473 -144.48908755 95.30110128 -140.90625 91.15625 C-138.31714909 88.22759487 -135.65800659 85.36606337 -133 82.5 C-129.16952672 78.36859035 -125.38737257 74.20890246 -121.69921875 69.94921875 C-118.18592589 65.91902763 -114.5818996 61.96913199 -111 58 C-110.278125 57.195625 -109.55625 56.39125 -108.8125 55.5625 C-104.2688262 50.4995492 -99.69417306 45.4662754 -95.08422852 40.46362305 C-92.19772709 37.32655901 -89.37205532 34.1433398 -86.5625 30.9375 C-73.22621893 16.18246563 -59.02975848 5.99762687 -40 0 C-39.1646875 -0.26683594 -38.329375 -0.53367187 -37.46875 -0.80859375 C-26.15477568 -3.69684424 -11.1341993 -3.46477515 0 0 Z " fill="#3D1D09" transform="translate(505,357)"/>
<path d="M0 0 C4.52049994 2.45774754 7.55699234 5.73898468 9.875 10.375 C9.94565617 12.41555005 9.95921976 14.45834257 9.9375 16.5 C9.92847656 17.59570312 9.91945313 18.69140625 9.91015625 19.8203125 C9.89275391 21.08488281 9.89275391 21.08488281 9.875 22.375 C10.7 22.58125 11.525 22.7875 12.375 23 C18.32883981 25.3390085 23.70448549 29.50939974 27.875 34.375 C27.875 35.035 27.875 35.695 27.875 36.375 C26.25001495 37.44139644 24.56903834 38.42210343 22.875 39.375 C22.30523438 39.77074219 21.73546875 40.16648437 21.1484375 40.57421875 C12.25407091 46.66850697 2.53417271 48.34543863 -8.125 47.375 C-10.13589078 46.74194179 -12.13963373 46.08405938 -14.125 45.375 C-22.31713341 45.93641893 -28.63106507 51.84835032 -34.2109375 57.48046875 C-46.40797857 72.18866534 -49.74299146 89.54639353 -51.4206543 108.00244141 C-54.73289906 144.21026771 -72.79028398 173.40258669 -99.96826172 196.97363281 C-128.29718573 220.42416206 -163.9137991 229.80990022 -200.125 227.375 C-207.5573046 226.52718218 -214.83218101 225.00838859 -222.125 223.375 C-223.61531857 223.06109868 -225.10617704 222.74974572 -226.59765625 222.44140625 C-229.77929229 221.77577869 -232.95401389 221.08928356 -236.125 220.375 C-232.85817646 218.6035812 -229.56465173 217.50221247 -226.015625 216.4140625 C-178.59000439 201.50689561 -132.90482791 174.07454409 -109.18066406 128.84204102 C-103.02202955 116.54559696 -99.50503171 102.76918331 -97.48828125 89.2109375 C-95.28650928 74.62846993 -90.52005803 62.8791351 -78.66015625 53.40625 C-71.6620448 48.55587026 -64.37035665 46.26837819 -56.125 44.375 C-55.38918701 44.20154053 -54.65337402 44.02808105 -53.89526367 43.84936523 C-50.4600587 43.26113898 -47.12082067 43.15575994 -43.63671875 43.05859375 C-42.93352005 43.03781265 -42.23032135 43.01703156 -41.5058136 42.99562073 C-39.27480183 42.93059885 -37.04367931 42.87146224 -34.8125 42.8125 C-33.29360866 42.76926964 -31.77472823 42.72565395 -30.25585938 42.68164062 C-26.5456888 42.57496666 -22.83539579 42.47356779 -19.125 42.375 C-20.34195557 40.97036499 -20.34195557 40.97036499 -21.58349609 39.53735352 C-24.68767062 35.95445177 -24.842978 33.37661169 -24.6328125 28.7109375 C-23.8714474 25.20865803 -21.82108143 23.59926718 -19.125 21.375 C-19.125 20.385 -19.125 19.395 -19.125 18.375 C-21.69064725 17.09217637 -23.63533069 17.17108047 -26.5 17.125 C-27.45648437 17.09921875 -28.41296875 17.0734375 -29.3984375 17.046875 C-32.60439097 17.43269175 -33.88139766 18.07075976 -36.125 20.375 C-37.02787776 22.62219899 -37.02787776 22.62219899 -37.5 25.125 C-39.1120128 31.02996667 -41.60817016 35.25733902 -46.94140625 38.46875 C-52.10597737 40.72238104 -57.57727139 41.30991134 -63.125 40.375 C-68.74369445 38.08045462 -72.74975866 34.33859021 -76.125 29.375 C-76.83624591 27.05486678 -77.50905925 24.72223367 -78.125 22.375 C-82.4855117 22.4438642 -86.84509398 22.53182189 -91.20483398 22.63745117 C-92.68779854 22.67069423 -94.17088944 22.69872823 -95.65405273 22.72143555 C-97.78684293 22.75499468 -99.91847612 22.80730638 -102.05078125 22.86328125 C-103.97531128 22.90255737 -103.97531128 22.90255737 -105.9387207 22.94262695 C-109.06771457 23.11515836 -109.06771457 23.11515836 -110.99291992 24.70776367 C-112.61422776 27.09549523 -113.32886937 29.61916321 -114.125 32.375 C-115.775 32.045 -117.425 31.715 -119.125 31.375 C-119.58043387 25.68207666 -118.80746386 22.7734985 -115.125 18.375 C-111.50992189 15.86564813 -107.7498921 16.11735269 -103.515625 16.1796875 C-102.78881531 16.1825174 -102.06200562 16.18534729 -101.31317139 16.18826294 C-99.00027749 16.19942477 -96.68777612 16.22452149 -94.375 16.25 C-92.80339102 16.26003499 -91.23177596 16.26915994 -89.66015625 16.27734375 C-85.81495378 16.29935096 -81.97004336 16.33385285 -78.125 16.375 C-77.99480469 15.611875 -77.86460937 14.84875 -77.73046875 14.0625 C-76.32519779 7.82491018 -72.04150916 4.03623022 -67.125 0.375 C-61.05683164 -1.64772279 -53.85032057 -1.43250239 -47.75 0.375 C-44.00883515 3.22541132 -40.86933289 6.55079647 -38.125 10.375 C-38.125 11.035 -38.125 11.695 -38.125 12.375 C-37.135 11.900625 -36.145 11.42625 -35.125 10.9375 C-32.32365147 9.6981155 -30.11226316 9.23664836 -27.0625 9.125 C-24.47074194 8.89528734 -23.42791774 8.65539867 -21.49609375 6.8671875 C-20.499014 5.62279031 -19.5170885 4.3660973 -18.55078125 3.09765625 C-13.68563503 -2.78050672 -6.54218493 -2.93906428 0 0 Z " fill="#C8811E" transform="translate(558.125,365.625)"/>
<path d="M0 0 C4.66018963 1.7027616 7.47755931 3.70250846 10 8 C11.1917561 12.41602775 11.36470496 15.8844319 9.9375 20.25 C6.89234725 24.57215228 4.66396348 27.46560009 -0.58984375 28.51953125 C-5.61645499 28.81602547 -9.10060829 28.50737122 -13.0625 25.25 C-16.34352575 22.07326113 -17.8596564 19.23970184 -18.375 14.6875 C-17.77656459 8.80288515 -15.64362026 5.45684523 -11.25 1.5625 C-7.24874388 -0.36118083 -4.3544501 -0.71412982 0 0 Z " fill="#411F07" transform="translate(504,371)"/>
<path d="M0 0 C3.62267269 0.82744347 5.46679395 2.83383847 8.03515625 5.46484375 C9.6424126 8.67935644 9.0926381 11.90096911 9.03515625 15.46484375 C6.44938398 15.40470951 3.86928815 15.31767253 1.28515625 15.21484375 C0.55554688 15.20066406 -0.1740625 15.18648438 -0.92578125 15.171875 C-4.46042649 15.01120931 -6.60380431 14.73169899 -9.48046875 12.60546875 C-10.96484375 10.46484375 -10.96484375 10.46484375 -10.96484375 7.46484375 C-9.015531 1.61690549 -6.30975167 -0.29484821 0 0 Z " fill="#EAE8DC" transform="translate(552.96484375,370.53515625)"/>
<path d="M0 0 C4.52049994 2.45774754 7.55699234 5.73898468 9.875 10.375 C9.94565617 12.41555005 9.95921976 14.45834257 9.9375 16.5 C9.92847656 17.59570312 9.91945313 18.69140625 9.91015625 19.8203125 C9.89275391 21.08488281 9.89275391 21.08488281 9.875 22.375 C9.545 22.375 9.215 22.375 8.875 22.375 C8.81892578 21.39660156 8.81892578 21.39660156 8.76171875 20.3984375 C8.25182105 13.6197975 7.50638655 8.70041137 2.1875 4 C1.424375 3.46375 0.66125 2.9275 -0.125 2.375 C-0.455 3.365 -0.785 4.355 -1.125 5.375 C0.01242446 7.13689278 1.35054046 8.60510117 2.74609375 10.16796875 C4.48649517 13.57048364 4.03638779 16.58435497 3.875 20.375 C1.24905216 20.2613485 -1.37511547 20.13460946 -4 20 C-4.74636719 19.9690625 -5.49273438 19.938125 -6.26171875 19.90625 C-11.8984375 19.6015625 -11.8984375 19.6015625 -14.125 17.375 C-15.445 18.035 -16.765 18.695 -18.125 19.375 C-19.115 18.715 -20.105 18.055 -21.125 17.375 C-23.7307687 17.01994575 -23.7307687 17.01994575 -26.5625 17.0625 C-27.50996094 17.04574219 -28.45742188 17.02898437 -29.43359375 17.01171875 C-32.59899509 17.43897902 -33.89945252 18.09944022 -36.125 20.375 C-37.02787776 22.62219899 -37.02787776 22.62219899 -37.5 25.125 C-39.1120128 31.02996667 -41.60817016 35.25733902 -46.94140625 38.46875 C-52.10597737 40.72238104 -57.57727139 41.30991134 -63.125 40.375 C-68.74369445 38.08045462 -72.74975866 34.33859021 -76.125 29.375 C-76.83624591 27.05486678 -77.50905925 24.72223367 -78.125 22.375 C-82.4855117 22.4438642 -86.84509398 22.53182189 -91.20483398 22.63745117 C-92.68779854 22.67069423 -94.17088944 22.69872823 -95.65405273 22.72143555 C-97.78684293 22.75499468 -99.91847612 22.80730638 -102.05078125 22.86328125 C-103.97531128 22.90255737 -103.97531128 22.90255737 -105.9387207 22.94262695 C-109.06771457 23.11515836 -109.06771457 23.11515836 -110.99291992 24.70776367 C-112.61422776 27.09549523 -113.32886937 29.61916321 -114.125 32.375 C-115.775 32.045 -117.425 31.715 -119.125 31.375 C-119.58043387 25.68207666 -118.80746386 22.7734985 -115.125 18.375 C-111.50992189 15.86564813 -107.7498921 16.11735269 -103.515625 16.1796875 C-102.78881531 16.1825174 -102.06200562 16.18534729 -101.31317139 16.18826294 C-99.00027749 16.19942477 -96.68777612 16.22452149 -94.375 16.25 C-92.80339102 16.26003499 -91.23177596 16.26915994 -89.66015625 16.27734375 C-85.81495378 16.29935096 -81.97004336 16.33385285 -78.125 16.375 C-77.92970703 15.2303125 -77.92970703 15.2303125 -77.73046875 14.0625 C-76.32519779 7.82491018 -72.04150916 4.03623022 -67.125 0.375 C-61.05683164 -1.64772279 -53.85032057 -1.43250239 -47.75 0.375 C-44.00883515 3.22541132 -40.86933289 6.55079647 -38.125 10.375 C-38.125 11.035 -38.125 11.695 -38.125 12.375 C-37.135 11.900625 -36.145 11.42625 -35.125 10.9375 C-32.32365147 9.6981155 -30.11226316 9.23664836 -27.0625 9.125 C-24.47074194 8.89528734 -23.42791774 8.65539867 -21.49609375 6.8671875 C-20.499014 5.62279031 -19.5170885 4.3660973 -18.55078125 3.09765625 C-13.68563503 -2.78050672 -6.54218493 -2.93906428 0 0 Z " fill="#C88E29" transform="translate(558.125,365.625)"/>
<path d="M0 0 C0.99 0.66 1.98 1.32 3 2 C5.74341518 2.45770675 8.42742471 2.83091338 11.1875 3.125 C11.93708984 3.21136719 12.68667969 3.29773438 13.45898438 3.38671875 C15.30517412 3.59838382 17.15249344 3.80015464 19 4 C19 4.33 19 4.66 19 5 C18.42032471 5.00410889 17.84064941 5.00821777 17.2434082 5.01245117 C14.59875891 5.04549277 11.95638161 5.11614264 9.3125 5.1875 C8.40048828 5.19330078 7.48847656 5.19910156 6.54882812 5.20507812 C0.76130916 5.38393503 0.76130916 5.38393503 -4.01953125 8.55078125 C-4.67308594 9.35902344 -5.32664062 10.16726563 -6 11 C-6.66 11 -7.32 11 -8 11 C-6.7537737 17.12727933 -5.68220939 21.47055436 -0.265625 25.19140625 C7.42819489 29.34201961 16.88657826 29.45381599 25.1875 27.09375 C27.52964038 26.16221689 29.77127616 25.17466856 32 24 C32 23.67 32 23.34 32 23 C33.65 23 35.3 23 37 23 C29.29434174 29.75486801 19.64357087 31.60762388 9.58984375 31.27734375 C6.5361058 30.95032204 3.88361089 30.02986103 1 29 C-4.22530508 29.22235341 -7.65570119 31.30653474 -12 34 C-11.34 32.35 -10.68 30.7 -10 29 C-14.10464976 29.11143845 -18.20850725 29.24168134 -22.3125 29.375 C-23.46041016 29.4059375 -24.60832031 29.436875 -25.79101562 29.46875 C-35.36569045 29.7942347 -44.54302959 30.53166261 -53.375 34.5 C-54.80972656 35.13421875 -54.80972656 35.13421875 -56.2734375 35.78125 C-57.17320312 36.1834375 -58.07296875 36.585625 -59 37 C-60.66350501 37.6745171 -62.3291761 38.34382189 -64 39 C-57.2093445 31.07756859 -46.00788125 28.27081583 -36 27 C-25.35203672 26.25577304 -14.67060228 26.11260825 -4 26 C-5.21623047 24.66775391 -5.21623047 24.66775391 -6.45703125 23.30859375 C-9.46978785 19.67816347 -9.78731338 17.13362758 -9.5625 12.46875 C-8.60666185 8.27368254 -6.09385824 5.83791863 -3 3 C-1.99769851 2.0023068 -0.99700152 1.00298952 0 0 Z " fill="#AB7938" transform="translate(543,382)"/>
<path d="M0 0 C1.07227808 3.35954038 0.95034856 6.02854371 0.546875 9.515625 C0.42417236 10.59376465 0.30146973 11.6719043 0.17504883 12.78271484 C0.03478271 13.92691895 -0.1054834 15.07112305 -0.25 16.25 C-0.39348877 17.42643066 -0.53697754 18.60286133 -0.68481445 19.81494141 C-1.10949267 23.21190022 -1.55123076 26.60614982 -2 30 C-2.10296387 30.81243164 -2.20592773 31.62486328 -2.31201172 32.46191406 C-5.51795731 56.79104068 -18.49942654 83.64544289 -38 99 C-36.63055898 96.05043472 -35.12169591 93.47531189 -33 91 C-32.34 91 -31.68 91 -31 91 C-31 90.01 -31 89.02 -31 88 C-30.34 88 -29.68 88 -29 88 C-29 87.34 -29 86.68 -29 86 C-28.34 86 -27.68 86 -27 86 C-26.896875 85.43410156 -26.79375 84.86820313 -26.6875 84.28515625 C-25.87528398 81.58546095 -24.62018491 79.73925308 -23 77.4375 C-21.19972845 74.87124752 -19.99823137 72.99469411 -19 70 C-18.01 69.505 -18.01 69.505 -17 69 C-15.78054783 66.63918866 -14.67804107 64.30947099 -13.625 61.875 C-13.31409424 61.15795898 -13.00318848 60.44091797 -12.68286133 59.70214844 C-7.22571725 46.73698674 -4.36101276 33.02004134 -3.5625 19 C-3.16601796 12.40665049 -1.84322986 6.32958179 0 0 Z " fill="#BB873D" transform="translate(508,451)"/>
<path d="M0 0 C3.62267269 0.82744347 5.46679395 2.83383847 8.03515625 5.46484375 C9.6424126 8.67935644 9.0926381 11.90096911 9.03515625 15.46484375 C6.44938398 15.40470951 3.86928815 15.31767253 1.28515625 15.21484375 C0.55554688 15.20066406 -0.1740625 15.18648438 -0.92578125 15.171875 C-4.46042649 15.01120931 -6.60380431 14.73169899 -9.48046875 12.60546875 C-10.96484375 10.46484375 -10.96484375 10.46484375 -10.96484375 7.46484375 C-9.015531 1.61690549 -6.30975167 -0.29484821 0 0 Z M-8.02734375 3.65234375 C-9.34619891 6.2021304 -8.76235535 7.78230473 -7.96484375 10.46484375 C-7.30484375 10.46484375 -6.64484375 10.46484375 -5.96484375 10.46484375 C-5.96484375 11.12484375 -5.96484375 11.78484375 -5.96484375 12.46484375 C-4.00719992 12.6594108 -2.04869054 12.84528622 -0.08984375 13.02734375 C1.00070312 13.13175781 2.09125 13.23617188 3.21484375 13.34375 C5.98667648 13.69123779 5.98667648 13.69123779 8.03515625 12.46484375 C8.53894654 10.17790152 8.53894654 10.17790152 8.03515625 7.46484375 C5.4618671 4.56989346 3.77576029 2.81558694 -0.0390625 2.046875 C-3.04998371 1.93000005 -5.39597353 2.13731241 -8.02734375 3.65234375 Z " fill="#F4DEB6" transform="translate(552.96484375,370.53515625)"/>
<path d="M0 0 C0.99 0.66 1.98 1.32 3 2 C5.74341518 2.45770675 8.42742471 2.83091338 11.1875 3.125 C11.93708984 3.21136719 12.68667969 3.29773438 13.45898438 3.38671875 C15.30517412 3.59838382 17.15249344 3.80015464 19 4 C19 4.33 19 4.66 19 5 C18.13048706 5.00616333 18.13048706 5.00616333 17.2434082 5.01245117 C14.59875891 5.04549277 11.95638161 5.11614264 9.3125 5.1875 C8.40048828 5.19330078 7.48847656 5.19910156 6.54882812 5.20507812 C0.76130916 5.38393503 0.76130916 5.38393503 -4.01953125 8.55078125 C-4.67308594 9.35902344 -5.32664062 10.16726563 -6 11 C-6.66 11 -7.32 11 -8 11 C-6.83311977 16.63992111 -5.45387201 20.39483731 -2 25 C-5 25 -5 25 -7.1875 23.125 C-9.74408779 18.71709001 -10.04854871 14.97866464 -9 10 C-7.35624498 7.2329265 -5.36118206 5.16585313 -3 3 C-1.99769851 2.0023068 -0.99700152 1.00298952 0 0 Z " fill="#B87D2F" transform="translate(543,382)"/>
<path d="M0 0 C0.33 0.99 0.66 1.98 1 3 C0.319375 2.835 -0.36125 2.67 -1.0625 2.5 C-7.76124138 1.3597887 -11.6274036 1.8236042 -17.19921875 5.62109375 C-19.32895737 7.25189144 -21.21773497 8.99495184 -23 11 C-22.23292555 6.49717336 -20.07081828 4.32888715 -16.67578125 1.41796875 C-11.48488873 -1.33282539 -5.7001219 -0.50436472 0 0 Z " fill="#F6E4BF" transform="translate(558,363)"/>
<path d="M0 0 C0.66 0.33 1.32 0.66 2 1 C0.89718873 2.27200971 -0.20730769 3.54255853 -1.3125 4.8125 C-1.92738281 5.52019531 -2.54226563 6.22789062 -3.17578125 6.95703125 C-6.44911047 10.6228796 -6.44911047 10.6228796 -8 12 C-8.66 12 -9.32 12 -10 12 C-10.66 13.32 -11.32 14.64 -12 16 C-12.66 15.67 -13.32 15.34 -14 15 C-9.71924631 9.4045986 -5.65596939 4.24197704 0 0 Z " fill="#F3E2C5" transform="translate(532,415)"/>
<path d="M0 0 C3.29544238 0.8906601 4.73575518 1.63194471 6.75 4.4375 C8.19302508 8.55012147 8.54056172 12.27836139 8.7890625 16.609375 C8.85387713 19.01347777 8.85387713 19.01347777 10 21 C8.68 20.67 7.36 20.34 6 20 C5.97421875 19.20335937 5.9484375 18.40671875 5.921875 17.5859375 C5.5762473 11.12898368 5.19856348 6.98579414 1 2 C0.67 1.34 0.34 0.68 0 0 Z " fill="#F1DDB5" transform="translate(562,368)"/>
<path d="M0 0 C0.33 0 0.66 0 1 0 C0.67 3.63 0.34 7.26 0 11 C-0.66 11 -1.32 11 -2 11 C-2.33 13.97 -2.66 16.94 -3 20 C-3.66 20 -4.32 20 -5 20 C-4.45484328 12.91296261 -2.39081395 6.67203894 0 0 Z " fill="#F0DBB8" transform="translate(513,439)"/>
<path d="M0 0 C0.75 1.5625 0.75 1.5625 1 4 C-0.13084437 6.50286409 -1.52139516 8.67007722 -3 11 C-3.66 11 -4.32 11 -5 11 C-3.55049545 7.2089881 -1.84827434 3.6125362 0 0 Z " fill="#F5E2C1" transform="translate(494,517)"/>
<path d="M0 0 C0.33 0 0.66 0 1 0 C1.59720137 5.82271337 -0.471757 9.9209404 -3 15 C-3.66 15 -4.32 15 -5 15 C-1.92482916 4.44191344 -1.92482916 4.44191344 0 0 Z " fill="#F3DEBB" transform="translate(502,497)"/>
</svg>
