<?xml version="1.0" standalone="no"?>
<!DOCTYPE svg PUBLIC "-//W3C//DTD SVG 20010904//EN"
 "http://www.w3.org/TR/2001/REC-SVG-20010904/DTD/svg10.dtd">
<svg version="1.0" xmlns="http://www.w3.org/2000/svg"
 width="1024.000000pt" height="1024.000000pt" viewBox="0 0 1024.000000 1024.000000"
 preserveAspectRatio="xMidYMid meet">

<g transform="translate(0.000000,1024.000000) scale(0.100000,-0.100000)"
fill="#000000" stroke="none">
<path d="M4696 6674 c-89 -20 -204 -66 -269 -108 -101 -64 -186 -148 -453
-442 -148 -164 -361 -400 -474 -524 -113 -124 -340 -374 -505 -555 -164 -182
-363 -400 -440 -485 -384 -422 -550 -613 -573 -655 -10 -19 -16 -54 -17 -95 0
-179 177 -291 333 -211 21 11 208 186 417 389 l380 370 105 22 c157 33 298 83
465 165 370 181 635 410 799 690 79 135 112 240 160 504 28 158 110 275 238
340 94 47 177 61 374 61 94 0 173 2 176 5 3 3 -12 23 -33 44 -33 32 -39 45
-39 79 0 51 44 106 91 116 17 3 28 10 24 16 -4 7 -13 6 -26 -1 -16 -8 -25 -7
-37 4 -31 28 -86 31 -136 8 -36 -15 -46 -25 -46 -43 0 -13 -12 -48 -26 -76
-43 -86 -138 -127 -232 -101 -56 16 -127 82 -140 131 l-8 33 -152 3 c-92 1
-160 -2 -172 -8 -11 -6 -24 -29 -30 -51 -9 -33 -15 -40 -33 -37 -19 3 -22 9
-21 46 1 35 7 50 33 75 l31 32 172 5 171 5 10 30 c46 145 251 183 350 65 14
-16 28 -39 32 -49 5 -18 8 -19 40 -5 19 8 56 14 82 14 l48 1 -48 44 c-62 57
-133 97 -232 131 -101 34 -280 43 -389 18z"/>
<path d="M4945 6521 c-45 -20 -85 -84 -85 -138 0 -73 93 -152 163 -139 129 24
169 165 73 255 -28 26 -113 39 -151 22z"/>
<path d="M6285 5246 c-119 -53 -141 -206 -42 -293 79 -69 213 -49 267 39 28
46 27 130 -3 182 -41 72 -146 106 -222 72z"/>
<path d="M7510 5105 c-66 -74 -120 -141 -120 -148 0 -29 25 -37 115 -37 l91 0
73 70 74 70 72 -70 73 -70 90 0 c100 0 131 14 112 49 -10 19 -197 223 -232
254 -16 14 -40 17 -124 17 l-103 0 -121 -135z"/>
<path d="M7685 4823 c-212 -31 -370 -165 -429 -362 -20 -67 -21 -198 -2 -267
33 -124 134 -252 242 -307 148 -75 333 -78 479 -7 107 52 218 187 250 304 24
89 17 248 -14 329 -51 130 -175 246 -306 286 -64 20 -170 32 -220 24z m177
-308 c28 -20 53 -49 71 -85 25 -48 28 -63 24 -117 -12 -158 -157 -255 -295
-197 -174 72 -186 329 -21 413 65 33 162 26 221 -14z"/>
<path d="M7092 4809 c-67 -11 -99 -28 -145 -76 l-37 -37 0 36 c0 69 2 68 -145
68 -112 0 -134 -2 -139 -16 -3 -9 -6 -212 -6 -453 0 -336 3 -441 13 -454 11
-15 29 -17 142 -15 l130 3 5 250 c5 244 6 252 31 300 37 72 90 106 178 114 39
4 75 11 80 16 5 6 12 62 16 127 8 154 4 158 -123 137z"/>
<path d="M5164 4785 c-4 -9 22 -91 56 -183 86 -229 270 -703 281 -724 9 -16
27 -18 154 -18 127 0 145 2 154 18 32 60 332 883 329 901 -3 14 -23 16 -148
16 l-145 0 -90 -272 c-49 -150 -93 -273 -97 -273 -3 0 -43 111 -89 248 -45
136 -88 259 -96 275 l-14 27 -145 0 c-121 0 -146 -3 -150 -15z"/>
<path d="M6213 4788 c-13 -20 -16 -884 -3 -908 10 -18 21 -20 138 -20 86 0
132 4 140 12 9 9 12 124 12 454 0 243 -3 449 -6 458 -5 14 -27 16 -139 16 -96
0 -136 -4 -142 -12z"/>
</g>
</svg>
