<?xml version="1.0" encoding="UTF-8"?>
<svg version="1.1" xmlns="http://www.w3.org/2000/svg" width="1024" height="1024">
<path d="M0 0 C337.92 0 675.84 0 1024 0 C1024 337.92 1024 675.84 1024 1024 C686.08 1024 348.16 1024 0 1024 C0 686.08 0 348.16 0 0 Z " fill="#E8E8DF" transform="translate(0,0)"/>
<path d="M0 0 C1.64162109 0.495 1.64162109 0.495 3.31640625 1 C13.108523 4.21122275 21.83658645 8.45695854 29 16 C32.15263685 15.26151551 32.15263685 15.26151551 33.8125 12.625 C37.13993354 8.63207975 40.2508922 7.2267362 45.375 6.5625 C51.37609516 7.28677011 55.99208279 9.486008 59.9375 14.125 C62.88072404 18.22767593 63.11589576 20.10579826 63.0625 25.125 C63.05347656 26.22070312 63.04445313 27.31640625 63.03515625 28.4453125 C63.01775391 29.70988281 63.01775391 29.70988281 63 31 C64.2375 31.309375 64.2375 31.309375 65.5 31.625 C71.45383981 33.9640085 76.82948549 38.13439974 81 43 C81 43.66 81 44.32 81 45 C79.37501495 46.06639644 77.69403834 47.04710343 76 48 C75.43023438 48.39574219 74.86046875 48.79148437 74.2734375 49.19921875 C65.37907091 55.29350697 55.65917271 56.97043863 45 56 C42.98910922 55.36694179 40.98536627 54.70905938 39 54 C30.80786659 54.56141893 24.49393493 60.47335032 18.9140625 66.10546875 C6.71702143 80.81366534 3.38200854 98.17139353 1.7043457 116.62744141 C-1.60789906 152.83526771 -19.66528398 182.02758669 -46.84326172 205.59863281 C-75.1560207 229.03578073 -110.80176686 238.46221484 -147 236 C-155.88930758 234.97198484 -164.62340667 233.15459697 -173.2734375 230.88671875 C-176.46680648 230.126871 -179.17400526 229.7024018 -182.4375 229.6875 C-183.28183594 229.67074219 -184.12617188 229.65398437 -184.99609375 229.63671875 C-196.50258825 231.0282714 -202.38118018 237.68696573 -210.0625 245.75 C-211.77058584 247.51603226 -213.48304277 249.27767551 -215.19786072 251.03717041 C-216.25690601 252.12664877 -217.3114892 253.22049263 -218.36036682 254.31976318 C-221.73491569 257.827962 -225.29404066 261.02919128 -228.97694397 264.21020508 C-232.24726014 267.10344935 -235.31298988 270.18979169 -238.38671875 273.2890625 C-239.05161819 273.95537689 -239.71651764 274.62169128 -240.40156555 275.30819702 C-242.49926759 277.4114317 -244.59344856 279.5181313 -246.6875 281.625 C-248.10197896 283.04450462 -249.51669068 284.46377735 -250.93164062 285.8828125 C-253.52707579 288.48636335 -256.12117463 291.09122911 -258.71362305 293.69775391 C-259.27459686 294.26098862 -259.83557068 294.82422333 -260.4135437 295.40452576 C-261.87721926 296.87652134 -263.33593515 298.35344413 -264.79418945 299.83081055 C-266.91883863 301.92018608 -269.01360723 303.55471038 -271.5 305.1875 C-272.2321875 305.67605469 -272.964375 306.16460938 -273.71875 306.66796875 C-279.46526397 310.02338188 -284.42840255 310.811432 -291 310 C-298.36355247 307.63497013 -303.07041767 302.99180338 -306.8125 296.3125 C-309.65874129 290.21341151 -310.18183409 285.1261722 -308.32421875 278.640625 C-305.24306678 271.36006514 -299.68972693 266.06477875 -294.28515625 260.46484375 C-291.41299983 257.47875873 -288.77215369 254.36593097 -286.1875 251.125 C-282.97131533 247.10917892 -279.5803677 243.47077668 -275.89453125 239.88671875 C-273.40498825 237.40744191 -271.12483647 234.77746263 -268.83203125 232.1171875 C-263.5504831 226.01356469 -258.07950848 220.07379622 -252.625 214.125 C-252.16311279 213.6211377 -251.70122559 213.11727539 -251.2253418 212.59814453 C-248.9154631 210.08053286 -246.60077114 207.56761522 -244.27734375 205.0625 C-238.77830906 199.11246534 -233.45226095 193.05083704 -228.21044922 186.87304688 C-225.13408819 183.26662692 -221.96498107 179.84294821 -218.5546875 176.546875 C-216.26373657 174.26743638 -214.1909821 171.81414176 -212.08203125 169.3671875 C-209.43954273 166.36278216 -206.72180266 163.43246072 -204 160.5 C-200.78825847 157.03727209 -197.58896567 153.57350931 -194.5 150 C-189.47996326 144.20203989 -184.21399708 138.62293803 -179 133 C-172.73853096 126.24010556 -166.49965259 119.46506671 -160.3515625 112.6015625 C-157.55067546 109.50290673 -154.71418951 106.43852054 -151.875 103.375 C-148.15186804 99.35623473 -144.48908755 95.30110128 -140.90625 91.15625 C-138.31714909 88.22759487 -135.65800659 85.36606337 -133 82.5 C-129.16952672 78.36859035 -125.38737257 74.20890246 -121.69921875 69.94921875 C-118.18592589 65.91902763 -114.5818996 61.96913199 -111 58 C-110.278125 57.195625 -109.55625 56.39125 -108.8125 55.5625 C-104.2688262 50.4995492 -99.69417306 45.4662754 -95.08422852 40.46362305 C-92.19772709 37.32655901 -89.37205532 34.1433398 -86.5625 30.9375 C-73.22621893 16.18246563 -59.02975848 5.99762687 -40 0 C-39.1646875 -0.26683594 -38.329375 -0.53367187 -37.46875 -0.80859375 C-26.15477568 -3.69684424 -11.1341993 -3.46477515 0 0 Z " fill="#3D1D09" transform="translate(505,357)"/>
<path d="M0 0 C4.52049994 2.45774754 7.55699234 5.73898468 9.875 10.375 C9.94565617 12.41555005 9.95921976 14.45834257 9.9375 16.5 C9.92847656 17.59570312 9.91945313 18.69140625 9.91015625 19.8203125 C9.89275391 21.08488281 9.89275391 21.08488281 9.875 22.375 C10.7 22.58125 11.525 22.7875 12.375 23 C18.32883981 25.3390085 23.70448549 29.50939974 27.875 34.375 C27.875 35.035 27.875 35.695 27.875 36.375 C26.25001495 37.44139644 24.56903834 38.42210343 22.875 39.375 C22.30523438 39.77074219 21.73546875 40.16648437 21.1484375 40.57421875 C12.25407091 46.66850697 2.53417271 48.34543863 -8.125 47.375 C-10.13589078 46.74194179 -12.13963373 46.08405938 -14.125 45.375 C-22.31713341 45.93641893 -28.63106507 51.84835032 -34.2109375 57.48046875 C-46.40797857 72.18866534 -49.74299146 89.54639353 -51.4206543 108.00244141 C-54.73289906 144.21026771 -72.79028398 173.40258669 -99.96826172 196.97363281 C-128.29718573 220.42416206 -163.9137991 229.80990022 -200.125 227.375 C-207.5573046 226.52718218 -214.83218101 225.00838859 -222.125 223.375 C-223.61531857 223.06109868 -225.10617704 222.74974572 -226.59765625 222.44140625 C-229.77929229 221.77577869 -232.95401389 221.08928356 -236.125 220.375 C-232.85817646 218.6035812 -229.56465173 217.50221247 -226.015625 216.4140625 C-178.59000439 201.50689561 -132.90482791 174.07454409 -109.18066406 128.84204102 C-103.02202955 116.54559696 -99.50503171 102.76918331 -97.48828125 89.2109375 C-95.28650928 74.62846993 -90.52005803 62.8791351 -78.66015625 53.40625 C-71.6620448 48.55587026 -64.37035665 46.26837819 -56.125 44.375 C-55.38918701 44.20154053 -54.65337402 44.02808105 -53.89526367 43.84936523 C-50.4600587 43.26113898 -47.12082067 43.15575994 -43.63671875 43.05859375 C-42.93352005 43.03781265 -42.23032135 43.01703156 -41.5058136 42.99562073 C-39.27480183 42.93059885 -37.04367931 42.87146224 -34.8125 42.8125 C-33.29360866 42.76926964 -31.77472823 42.72565395 -30.25585938 42.68164062 C-26.5456888 42.57496666 -22.83539579 42.47356779 -19.125 42.375 C-20.34195557 40.97036499 -20.34195557 40.97036499 -21.58349609 39.53735352 C-24.68767062 35.95445177 -24.842978 33.37661169 -24.6328125 28.7109375 C-23.8714474 25.20865803 -21.82108143 23.59926718 -19.125 21.375 C-19.125 20.385 -19.125 19.395 -19.125 18.375 C-21.69064725 17.09217637 -23.63533069 17.17108047 -26.5 17.125 C-27.45648437 17.09921875 -28.41296875 17.0734375 -29.3984375 17.046875 C-32.60439097 17.43269175 -33.88139766 18.07075976 -36.125 20.375 C-37.02787776 22.62219899 -37.02787776 22.62219899 -37.5 25.125 C-39.1120128 31.02996667 -41.60817016 35.25733902 -46.94140625 38.46875 C-52.10597737 40.72238104 -57.57727139 41.30991134 -63.125 40.375 C-68.74369445 38.08045462 -72.74975866 34.33859021 -76.125 29.375 C-76.83624591 27.05486678 -77.50905925 24.72223367 -78.125 22.375 C-82.4855117 22.4438642 -86.84509398 22.53182189 -91.20483398 22.63745117 C-92.68779854 22.67069423 -94.17088944 22.69872823 -95.65405273 22.72143555 C-97.78684293 22.75499468 -99.91847612 22.80730638 -102.05078125 22.86328125 C-103.97531128 22.90255737 -103.97531128 22.90255737 -105.9387207 22.94262695 C-109.06771457 23.11515836 -109.06771457 23.11515836 -110.99291992 24.70776367 C-112.61422776 27.09549523 -113.32886937 29.61916321 -114.125 32.375 C-115.775 32.045 -117.425 31.715 -119.125 31.375 C-119.58043387 25.68207666 -118.80746386 22.7734985 -115.125 18.375 C-111.50992189 15.86564813 -107.7498921 16.11735269 -103.515625 16.1796875 C-102.78881531 16.1825174 -102.06200562 16.18534729 -101.31317139 16.18826294 C-99.00027749 16.19942477 -96.68777612 16.22452149 -94.375 16.25 C-92.80339102 16.26003499 -91.23177596 16.26915994 -89.66015625 16.27734375 C-85.81495378 16.29935096 -81.97004336 16.33385285 -78.125 16.375 C-77.99480469 15.611875 -77.86460937 14.84875 -77.73046875 14.0625 C-76.32519779 7.82491018 -72.04150916 4.03623022 -67.125 0.375 C-61.05683164 -1.64772279 -53.85032057 -1.43250239 -47.75 0.375 C-44.00883515 3.22541132 -40.86933289 6.55079647 -38.125 10.375 C-38.125 11.035 -38.125 11.695 -38.125 12.375 C-37.135 11.900625 -36.145 11.42625 -35.125 10.9375 C-32.32365147 9.6981155 -30.11226316 9.23664836 -27.0625 9.125 C-24.47074194 8.89528734 -23.42791774 8.65539867 -21.49609375 6.8671875 C-20.499014 5.62279031 -19.5170885 4.3660973 -18.55078125 3.09765625 C-13.68563503 -2.78050672 -6.54218493 -2.93906428 0 0 Z " fill="#C8811E" transform="translate(558.125,365.625)"/>
<path d="M0 0 C13.60025118 -0.58753085 26.99732803 4.27065617 37.44140625 12.89453125 C42.17704522 17.40711476 45.54867165 22.46151594 48.62890625 28.20703125 C49.28246094 29.38265625 49.28246094 29.38265625 49.94921875 30.58203125 C55.10665003 41.83460859 54.36933764 57.43444225 50.56640625 69.01953125 C48.09436872 74.85493253 44.92215564 79.57143223 40.62890625 84.20703125 C40.07203125 84.84253906 39.51515625 85.47804688 38.94140625 86.1328125 C31.85150038 93.79713203 20.95278729 99.66731436 10.4375 100.34912109 C-10.16485389 101.14059218 -10.16485389 101.14059218 -19.37109375 96.20703125 C-20.63759766 95.57087891 -20.63759766 95.57087891 -21.9296875 94.921875 C-34.89467659 87.83750501 -41.73159684 77.55342715 -46.5390625 63.88671875 C-49.08078298 52.64587045 -48.79845029 39.48688414 -43.37109375 29.20703125 C-42.94699219 28.36140625 -42.52289062 27.51578125 -42.0859375 26.64453125 C-34.83916266 13.40251371 -23.58740955 5.84516329 -9.46875 1.265625 C-6.31119224 0.55230626 -3.21797987 0.28097683 0 0 Z " fill="#18181A" transform="translate(771.37109375,540.79296875)"/>
<path d="M0 0 C4.07487494 -0.12366555 8.14902301 -0.21436476 12.2253418 -0.2746582 C13.61160304 -0.29979219 14.99773187 -0.33390592 16.38354492 -0.37719727 C18.37621037 -0.43788396 20.36984533 -0.46354879 22.36328125 -0.48828125 C23.56251221 -0.51446533 24.76174316 -0.54064941 25.99731445 -0.56762695 C29 0 29 0 30.67773438 1.86401367 C32.59013933 6.39961959 34.22172682 11.00031538 35.79296875 15.6640625 C36.14386063 16.69308685 36.4947525 17.72211121 36.85627747 18.78231812 C37.59442095 20.95157836 38.32968626 23.12181984 39.06225586 25.29296875 C40.18665944 28.62251095 41.32214018 31.94812526 42.45898438 35.2734375 C43.17514183 37.38258761 43.89065882 39.49195532 44.60546875 41.6015625 C44.94603806 42.598461 45.28660736 43.5953595 45.63749695 44.62246704 C45.9481459 45.54707733 46.25879486 46.47168762 46.57885742 47.42431641 C46.85404709 48.2375235 47.12923676 49.05073059 47.4127655 49.88858032 C48 52 48 52 48 55 C48.66 55 49.32 55 50 55 C50.09676025 54.05995117 50.19352051 53.11990234 50.29321289 52.15136719 C51.01956172 47.10571984 52.6839325 42.39447356 54.30859375 37.578125 C54.63537613 36.59632263 54.96215851 35.61452026 55.29884338 34.60296631 C55.98775338 32.53788999 56.67961802 30.47379726 57.37426758 28.41064453 C58.43782781 25.24902552 59.49007304 22.08380138 60.54101562 18.91796875 C61.21287321 16.90863053 61.88537688 14.8995082 62.55859375 12.890625 C62.87324081 11.94374817 63.18788788 10.99687134 63.5120697 10.02130127 C63.80900223 9.14318787 64.10593475 8.26507446 64.41186523 7.36035156 C64.80038918 6.20288422 64.80038918 6.20288422 65.19676208 5.02203369 C66 3 66 3 68 0 C70.79736328 -0.34057617 70.79736328 -0.34057617 74.3203125 -0.29296875 C75.57714844 -0.28330078 76.83398438 -0.27363281 78.12890625 -0.26367188 C80.10697266 -0.2259668 80.10697266 -0.2259668 82.125 -0.1875 C83.46482903 -0.17245483 84.80467404 -0.15876613 86.14453125 -0.14648438 C89.43008842 -0.11102872 92.71484582 -0.06160849 96 0 C97.0214961 3.82502405 96.96111015 6.06844491 95.59155273 9.76977539 C95.25579727 10.69547333 94.92004181 11.62117126 94.57411194 12.57492065 C94.19774094 13.5724234 93.82136993 14.56992615 93.43359375 15.59765625 C93.04791733 16.64865509 92.66224091 17.69965393 92.26487732 18.78250122 C91.00158363 22.21393557 89.72008535 25.63823461 88.4375 29.0625 C87.5664986 31.4135512 86.69622198 33.76487105 85.82666016 36.11645508 C80.61222913 50.178974 75.30256321 64.20583454 69.875 78.1875 C69.57818329 78.95256866 69.28136658 79.71763733 68.97555542 80.50588989 C68.15163657 82.62395775 67.32320723 84.74017822 66.4921875 86.85546875 C66.03183105 88.02746826 65.57147461 89.19946777 65.09716797 90.40698242 C64 93 64 93 63 94 C60.85441173 94.08775605 58.70595579 94.10695219 56.55859375 94.09765625 C55.25341797 94.09443359 53.94824219 94.09121094 52.60351562 94.08789062 C51.2148431 94.07953401 49.82617123 94.07106905 48.4375 94.0625 C47.04492344 94.05748666 45.65234519 94.05292347 44.25976562 94.04882812 C40.8398013 94.03699434 37.41992156 94.0205088 34 94 C30.74407909 87.76857903 28.11936391 81.43123548 25.62109375 74.86328125 C25.2119574 73.79756897 24.80282104 72.73185669 24.38128662 71.6338501 C23.06236621 68.19503762 21.74945923 64.75397375 20.4375 61.3125 C19.5363712 58.95363468 18.63508498 56.59482948 17.73364258 54.23608398 C16.39442237 50.73125237 15.05568916 47.22624069 13.71891785 43.72047424 C11.24392402 37.23375965 8.74185528 30.75888002 6.203125 24.296875 C5.67476823 22.9424743 5.14683114 21.58790979 4.61938477 20.2331543 C3.69201666 17.85583469 2.75557116 15.48202798 1.80834961 13.11254883 C1.41139893 12.08669678 1.01444824 11.06084473 0.60546875 10.00390625 C0.26668701 9.14611572 -0.07209473 8.2883252 -0.42114258 7.40454102 C-1.09525624 4.60431098 -0.75560552 2.75293611 0 0 Z " fill="#18191A" transform="translate(517,544)"/>
<path d="M0 0 C2.64540597 2.64540597 1.18562153 10.37404185 1.1875 13.9375 C1.19974609 15.15630859 1.21199219 16.37511719 1.22460938 17.63085938 C1.22654297 18.79294922 1.22847656 19.95503906 1.23046875 21.15234375 C1.23457764 22.22476318 1.23868652 23.29718262 1.24291992 24.40209961 C1 27 1 27 -1 29 C-3.01694547 29.15047513 -5.04014836 29.22161612 -7.0625 29.25 C-13.74800424 29.68633269 -18.2354566 31.20458483 -23 36 C-26.27995622 40.8422752 -28.10248213 45.87852211 -28.18945312 51.73095703 C-28.20617065 52.68849884 -28.22288818 53.64604065 -28.2401123 54.63259888 C-28.25368774 55.66391937 -28.26726318 56.69523987 -28.28125 57.7578125 C-28.29965942 58.81660614 -28.31806885 59.87539978 -28.33703613 60.96627808 C-28.41584191 65.50459546 -28.48364636 70.04306161 -28.55224609 74.58154297 C-28.60382095 77.89037771 -28.66111633 81.19907867 -28.71875 84.5078125 C-28.73232544 85.54318146 -28.74590088 86.57855042 -28.7598877 87.64529419 C-28.77660522 88.59653168 -28.79332275 89.54776917 -28.81054688 90.52783203 C-28.82933899 91.79000046 -28.82933899 91.79000046 -28.84851074 93.07766724 C-29 95 -29 95 -30 96 C-34.30647636 96.25342236 -38.62445054 96.18522638 -42.9375 96.1875 C-44.76571289 96.20586914 -44.76571289 96.20586914 -46.63085938 96.22460938 C-48.37399414 96.22750977 -48.37399414 96.22750977 -50.15234375 96.23046875 C-51.7609729 96.23663208 -51.7609729 96.23663208 -53.40209961 96.24291992 C-56 96 -56 96 -58 94 C-58.19346293 91.14874116 -58.26220073 88.39497371 -58.24291992 85.54296875 C-58.24481827 84.66806793 -58.24671661 83.79316711 -58.24867249 82.89175415 C-58.25238712 79.99024589 -58.24166627 77.08898614 -58.23046875 74.1875 C-58.22927722 72.17732777 -58.22882373 70.16715498 -58.2290802 68.15698242 C-58.22751414 63.94023157 -58.21921518 59.72356547 -58.20581055 55.50683594 C-58.18882055 50.09262305 -58.18499614 44.67850339 -58.18575573 39.26426697 C-58.18548423 35.11225489 -58.18000619 30.96026333 -58.17275429 26.80825806 C-58.16956458 24.8114945 -58.16759951 22.81472861 -58.16686058 20.81796265 C-58.16470022 18.03094495 -58.15596253 15.24402752 -58.14526367 12.45703125 C-58.14571686 11.62579742 -58.14617004 10.7945636 -58.14663696 9.93814087 C-58.1144767 4.2289534 -58.1144767 4.2289534 -57 2 C-52.52084672 1.97113662 -48.04171709 1.95324813 -43.5625 1.9375 C-42.28310547 1.92912109 -41.00371094 1.92074219 -39.68554688 1.91210938 C-37.86313477 1.90727539 -37.86313477 1.90727539 -36.00390625 1.90234375 C-34.87799072 1.89710693 -33.7520752 1.89187012 -32.59204102 1.88647461 C-30 2 -30 2 -29 3 C-28.54540142 5.65463121 -28.29756762 8.32189138 -28 11 C-27.57589844 10.52949219 -27.15179687 10.05898438 -26.71484375 9.57421875 C-19.00178695 1.3865123 -11.06903051 -0.37522137 0 0 Z " fill="#18191A" transform="translate(720,542)"/>
<path d="M0 0 C1.21042969 -0.00128906 2.42085937 -0.00257813 3.66796875 -0.00390625 C4.94285156 -0.00003906 6.21773437 0.00382813 7.53125 0.0078125 C9.44357422 0.00201172 9.44357422 0.00201172 11.39453125 -0.00390625 C13.21017578 -0.00197266 13.21017578 -0.00197266 15.0625 0 C16.18205078 0.00112793 17.30160156 0.00225586 18.45507812 0.00341797 C21.03125 0.1328125 21.03125 0.1328125 22.03125 1.1328125 C22.1371109 3.95247192 22.17802774 6.7477677 22.17651367 9.56811523 C22.17987228 10.4526236 22.1832309 11.33713196 22.18669128 12.2484436 C22.19623143 15.18777856 22.19814592 18.12705675 22.19921875 21.06640625 C22.20242917 23.10042851 22.20579307 25.13445053 22.20930481 27.16847229 C22.21530373 31.43824804 22.21714393 35.70800353 22.21655273 39.9777832 C22.21645106 45.46043613 22.23010527 50.94295969 22.24732494 56.42558193 C22.25842027 60.62820538 22.26047271 64.83079731 22.25994301 69.03343391 C22.26112678 71.05532337 22.26557063 73.07721355 22.27327538 75.09908867 C22.28302578 77.9221908 22.28021694 80.74500895 22.27416992 83.56811523 C22.27978943 84.41027084 22.28540894 85.25242645 22.29119873 86.12010193 C22.25956532 91.90449718 22.25956532 91.90449718 20.03125 94.1328125 C17.43334961 94.37573242 17.43334961 94.37573242 14.18359375 94.36328125 C13.02150391 94.36134766 11.85941406 94.35941406 10.66210938 94.35742188 C9.44330078 94.34517578 8.22449219 94.33292969 6.96875 94.3203125 C5.13473633 94.3193457 5.13473633 94.3193457 3.26367188 94.31835938 C-5.82863944 94.27292306 -5.82863944 94.27292306 -6.96875 93.1328125 C-7.06930113 90.27726669 -7.10490544 87.44587227 -7.09814453 84.58984375 C-7.09989685 83.69397552 -7.10164917 82.7981073 -7.10345459 81.87509155 C-7.10787447 78.89847913 -7.10493464 75.92192558 -7.1015625 72.9453125 C-7.1022355 70.88647449 -7.10320549 68.82763656 -7.10446167 66.76879883 C-7.10593883 62.44774623 -7.10378351 58.12671427 -7.09912109 53.80566406 C-7.0934238 48.25344704 -7.09670271 42.70127836 -7.10269356 37.14906311 C-7.10629869 32.89587029 -7.10516081 28.64268901 -7.10256577 24.38949585 C-7.10189636 22.34166457 -7.10272538 20.29383227 -7.10504532 18.2460022 C-7.10757106 15.38923342 -7.10373236 12.53254407 -7.09814453 9.67578125 C-7.10016876 8.82067963 -7.10219299 7.965578 -7.10427856 7.08456421 C-7.07900829 0.14796416 -6.83556653 0.00688673 0 0 Z " fill="#171719" transform="translate(627.96875,543.8671875)"/>
<path d="M0 0 C4.52049994 2.45774754 7.55699234 5.73898468 9.875 10.375 C9.94565617 12.41555005 9.95921976 14.45834257 9.9375 16.5 C9.92847656 17.59570312 9.91945313 18.69140625 9.91015625 19.8203125 C9.89275391 21.08488281 9.89275391 21.08488281 9.875 22.375 C9.545 22.375 9.215 22.375 8.875 22.375 C8.81892578 21.39660156 8.81892578 21.39660156 8.76171875 20.3984375 C8.25182105 13.6197975 7.50638655 8.70041137 2.1875 4 C1.424375 3.46375 0.66125 2.9275 -0.125 2.375 C-0.455 3.365 -0.785 4.355 -1.125 5.375 C0.01242446 7.13689278 1.35054046 8.60510117 2.74609375 10.16796875 C4.48649517 13.57048364 4.03638779 16.58435497 3.875 20.375 C1.24905216 20.2613485 -1.37511547 20.13460946 -4 20 C-4.74636719 19.9690625 -5.49273438 19.938125 -6.26171875 19.90625 C-11.8984375 19.6015625 -11.8984375 19.6015625 -14.125 17.375 C-15.445 18.035 -16.765 18.695 -18.125 19.375 C-19.115 18.715 -20.105 18.055 -21.125 17.375 C-23.7307687 17.01994575 -23.7307687 17.01994575 -26.5625 17.0625 C-27.50996094 17.04574219 -28.45742188 17.02898437 -29.43359375 17.01171875 C-32.59899509 17.43897902 -33.89945252 18.09944022 -36.125 20.375 C-37.02787776 22.62219899 -37.02787776 22.62219899 -37.5 25.125 C-39.1120128 31.02996667 -41.60817016 35.25733902 -46.94140625 38.46875 C-52.10597737 40.72238104 -57.57727139 41.30991134 -63.125 40.375 C-68.74369445 38.08045462 -72.74975866 34.33859021 -76.125 29.375 C-76.83624591 27.05486678 -77.50905925 24.72223367 -78.125 22.375 C-82.4855117 22.4438642 -86.84509398 22.53182189 -91.20483398 22.63745117 C-92.68779854 22.67069423 -94.17088944 22.69872823 -95.65405273 22.72143555 C-97.78684293 22.75499468 -99.91847612 22.80730638 -102.05078125 22.86328125 C-103.97531128 22.90255737 -103.97531128 22.90255737 -105.9387207 22.94262695 C-109.06771457 23.11515836 -109.06771457 23.11515836 -110.99291992 24.70776367 C-112.61422776 27.09549523 -113.32886937 29.61916321 -114.125 32.375 C-115.775 32.045 -117.425 31.715 -119.125 31.375 C-119.58043387 25.68207666 -118.80746386 22.7734985 -115.125 18.375 C-111.50992189 15.86564813 -107.7498921 16.11735269 -103.515625 16.1796875 C-102.78881531 16.1825174 -102.06200562 16.18534729 -101.31317139 16.18826294 C-99.00027749 16.19942477 -96.68777612 16.22452149 -94.375 16.25 C-92.80339102 16.26003499 -91.23177596 16.26915994 -89.66015625 16.27734375 C-85.81495378 16.29935096 -81.97004336 16.33385285 -78.125 16.375 C-77.92970703 15.2303125 -77.92970703 15.2303125 -77.73046875 14.0625 C-76.32519779 7.82491018 -72.04150916 4.03623022 -67.125 0.375 C-61.05683164 -1.64772279 -53.85032057 -1.43250239 -47.75 0.375 C-44.00883515 3.22541132 -40.86933289 6.55079647 -38.125 10.375 C-38.125 11.035 -38.125 11.695 -38.125 12.375 C-37.135 11.900625 -36.145 11.42625 -35.125 10.9375 C-32.32365147 9.6981155 -30.11226316 9.23664836 -27.0625 9.125 C-24.47074194 8.89528734 -23.42791774 8.65539867 -21.49609375 6.8671875 C-20.499014 5.62279031 -19.5170885 4.3660973 -18.55078125 3.09765625 C-13.68563503 -2.78050672 -6.54218493 -2.93906428 0 0 Z " fill="#C88E29" transform="translate(558.125,365.625)"/>
<path d="M0 0 C5.22801761 3.33093105 8.97246634 8.31302578 10.8515625 14.1796875 C11.97529409 22.54261629 10.70131263 29.24238089 5.8515625 36.1796875 C2.00502558 40.56247085 -2.44932644 42.7939329 -8.24609375 43.3984375 C-14.65072014 43.66209279 -20.16118263 42.78380748 -25.09765625 38.48046875 C-30.28360357 32.9466172 -33.12783403 27.4001587 -33.6484375 19.8046875 C-33.38337068 13.40995041 -30.75167971 7.68163624 -26.140625 3.25 C-18.48765954 -2.65210251 -9.04626898 -3.90888166 0 0 Z " fill="#E7E7DF" transform="translate(785.1484375,570.8203125)"/>
<path d="M0 0 C1.40668945 -0.04253906 1.40668945 -0.04253906 2.84179688 -0.0859375 C7.2787469 -0.09844476 10.61123918 -0.08387369 14.14453125 2.79296875 C18.50467934 7.43441672 18.50467934 7.43441672 20.0625 9.3125 C22.5536976 12.24007146 25.13386508 14.99213542 27.875 17.6875 C35.58555699 25.35314112 35.58555699 25.35314112 35.9375 29.3125 C35.855 30.034375 35.7725 30.75625 35.6875 31.5 C30.34791765 34.16979117 21.53783124 33.41108357 15.6875 32.5 C12.15930697 30.74823982 10.07576778 28.58882633 7.6875 25.5 C6.0813377 23.69252035 4.50168364 22.11260768 2.6875 20.5 C-0.84282254 20.81364436 -2.75299817 22.47795439 -5.3125 24.8125 C-5.9725 25.40675781 -6.6325 26.00101563 -7.3125 26.61328125 C-9.37224294 28.44790383 -9.37224294 28.44790383 -10.9609375 30.70703125 C-14.6735511 33.53774494 -18.40594113 33.00350689 -22.9375 32.875 C-23.80890625 32.87371094 -24.6803125 32.87242187 -25.578125 32.87109375 C-32.03131132 32.78118868 -32.03131132 32.78118868 -34.3125 30.5 C-34.33141943 25.17418006 -30.67847708 22.23966313 -27.1875 18.6875 C-25.99915913 17.44611689 -24.81165284 16.20393431 -23.625 14.9609375 C-23.05265625 14.36635742 -22.4803125 13.77177734 -21.890625 13.15917969 C-19.39474427 10.53510706 -17.03386661 7.80138948 -14.6796875 5.05078125 C-14.22851562 4.53902344 -13.77734375 4.02726562 -13.3125 3.5 C-12.88573975 2.98268311 -12.45897949 2.46536621 -12.01928711 1.93237305 C-8.70263544 -0.85103353 -4.14370525 -0.01125242 0 0 Z " fill="#18191A" transform="translate(773.3125,499.5)"/>
<path d="M0 0 C4.28760968 1.99873534 7.10681349 4.23100404 9.703125 8.28125 C11.59361505 13.95272014 11.46036857 20.08922914 9.515625 25.71875 C6.66535011 29.74844898 3.22511907 32.36207947 -1.296875 34.28125 C-7.18781886 35.02976927 -12.3400192 34.77358022 -17.296875 31.28125 C-21.56534732 26.94247343 -24.43366338 23.75788928 -24.546875 17.53125 C-24.46150251 12.12949969 -23.57727195 8.52469607 -19.609375 4.62109375 C-13.56128143 -0.70878871 -8.05350061 -2.52014305 0 0 Z " fill="#1A1A1B" transform="translate(642.296875,498.71875)"/>
<path d="M0 0 C4.66018963 1.7027616 7.47755931 3.70250846 10 8 C11.1917561 12.41602775 11.36470496 15.8844319 9.9375 20.25 C6.89234725 24.57215228 4.66396348 27.46560009 -0.58984375 28.51953125 C-5.61645499 28.81602547 -9.10060829 28.50737122 -13.0625 25.25 C-16.34352575 22.07326113 -17.8596564 19.23970184 -18.375 14.6875 C-17.77656459 8.80288515 -15.64362026 5.45684523 -11.25 1.5625 C-7.24874388 -0.36118083 -4.3544501 -0.71412982 0 0 Z " fill="#411F07" transform="translate(504,371)"/>
<path d="M0 0 C0.99 0.66 1.98 1.32 3 2 C5.74341518 2.45770675 8.42742471 2.83091338 11.1875 3.125 C11.93708984 3.21136719 12.68667969 3.29773438 13.45898438 3.38671875 C15.30517412 3.59838382 17.15249344 3.80015464 19 4 C19 4.33 19 4.66 19 5 C18.42032471 5.00410889 17.84064941 5.00821777 17.2434082 5.01245117 C14.59875891 5.04549277 11.95638161 5.11614264 9.3125 5.1875 C8.40048828 5.19330078 7.48847656 5.19910156 6.54882812 5.20507812 C0.76130916 5.38393503 0.76130916 5.38393503 -4.01953125 8.55078125 C-4.67308594 9.35902344 -5.32664062 10.16726563 -6 11 C-6.66 11 -7.32 11 -8 11 C-6.7537737 17.12727933 -5.68220939 21.47055436 -0.265625 25.19140625 C7.42819489 29.34201961 16.88657826 29.45381599 25.1875 27.09375 C27.52964038 26.16221689 29.77127616 25.17466856 32 24 C32 23.67 32 23.34 32 23 C33.65 23 35.3 23 37 23 C29.29434174 29.75486801 19.64357087 31.60762388 9.58984375 31.27734375 C6.5361058 30.95032204 3.88361089 30.02986103 1 29 C-4.22530508 29.22235341 -7.65570119 31.30653474 -12 34 C-11.34 32.35 -10.68 30.7 -10 29 C-14.10464976 29.11143845 -18.20850725 29.24168134 -22.3125 29.375 C-23.46041016 29.4059375 -24.60832031 29.436875 -25.79101562 29.46875 C-35.36569045 29.7942347 -44.54302959 30.53166261 -53.375 34.5 C-54.80972656 35.13421875 -54.80972656 35.13421875 -56.2734375 35.78125 C-57.17320312 36.1834375 -58.07296875 36.585625 -59 37 C-60.66350501 37.6745171 -62.3291761 38.34382189 -64 39 C-57.2093445 31.07756859 -46.00788125 28.27081583 -36 27 C-25.35203672 26.25577304 -14.67060228 26.11260825 -4 26 C-5.21623047 24.66775391 -5.21623047 24.66775391 -6.45703125 23.30859375 C-9.46978785 19.67816347 -9.78731338 17.13362758 -9.5625 12.46875 C-8.60666185 8.27368254 -6.09385824 5.83791863 -3 3 C-1.99769851 2.0023068 -0.99700152 1.00298952 0 0 Z " fill="#AB7938" transform="translate(543,382)"/>
<path d="M0 0 C3.62267269 0.82744347 5.46679395 2.83383847 8.03515625 5.46484375 C9.6424126 8.67935644 9.0926381 11.90096911 9.03515625 15.46484375 C6.44938398 15.40470951 3.86928815 15.31767253 1.28515625 15.21484375 C0.55554688 15.20066406 -0.1740625 15.18648438 -0.92578125 15.171875 C-4.46042649 15.01120931 -6.60380431 14.73169899 -9.48046875 12.60546875 C-10.96484375 10.46484375 -10.96484375 10.46484375 -10.96484375 7.46484375 C-9.015531 1.61690549 -6.30975167 -0.29484821 0 0 Z " fill="#EAE8DC" transform="translate(552.96484375,370.53515625)"/>
<path d="M0 0 C0 0.99 0 1.98 0 3 C1.19882812 3.18175781 1.19882812 3.18175781 2.421875 3.3671875 C3.52015625 3.53476562 4.6184375 3.70234375 5.75 3.875 C7.44988862 4.1336787 9.14981679 4.39210552 10.85009766 4.64819336 C12.43784279 4.90800948 14.02036545 5.20022012 15.59912109 5.51000977 C23.81797272 7.0600987 31.77604821 7.26777838 40.125 7.1875 C42.09339844 7.1865332 42.09339844 7.1865332 44.1015625 7.18554688 C50.23320532 7.49213865 50.23320532 7.49213865 56 6 C59.472478 5.75959768 62.9440088 5.61715709 66.421875 5.4765625 C70.2301009 4.96935337 72.6485196 3.81884749 76 2 C78.4140625 1.234375 78.4140625 1.234375 80.625 0.75 C81.35976563 0.57984375 82.09453125 0.4096875 82.8515625 0.234375 C85.18251504 -0.01991073 86.75985272 0.38206877 89 1 C60.72170818 11.32859595 33.47436208 12.6014372 4 6 C2.50968143 5.68609868 1.01882296 5.37474572 -0.47265625 5.06640625 C-3.65429229 4.40077869 -6.82901389 3.71428356 -10 3 C-6.59538535 1.23899242 -3.90650339 0 0 0 Z " fill="#C2934F" transform="translate(332,583)"/>
<path d="M0 0 C1.07227808 3.35954038 0.95034856 6.02854371 0.546875 9.515625 C0.42417236 10.59376465 0.30146973 11.6719043 0.17504883 12.78271484 C0.03478271 13.92691895 -0.1054834 15.07112305 -0.25 16.25 C-0.39348877 17.42643066 -0.53697754 18.60286133 -0.68481445 19.81494141 C-1.10949267 23.21190022 -1.55123076 26.60614982 -2 30 C-2.10296387 30.81243164 -2.20592773 31.62486328 -2.31201172 32.46191406 C-5.51795731 56.79104068 -18.49942654 83.64544289 -38 99 C-36.63055898 96.05043472 -35.12169591 93.47531189 -33 91 C-32.34 91 -31.68 91 -31 91 C-31 90.01 -31 89.02 -31 88 C-30.34 88 -29.68 88 -29 88 C-29 87.34 -29 86.68 -29 86 C-28.34 86 -27.68 86 -27 86 C-26.896875 85.43410156 -26.79375 84.86820313 -26.6875 84.28515625 C-25.87528398 81.58546095 -24.62018491 79.73925308 -23 77.4375 C-21.19972845 74.87124752 -19.99823137 72.99469411 -19 70 C-18.01 69.505 -18.01 69.505 -17 69 C-15.78054783 66.63918866 -14.67804107 64.30947099 -13.625 61.875 C-13.31409424 61.15795898 -13.00318848 60.44091797 -12.68286133 59.70214844 C-7.22571725 46.73698674 -4.36101276 33.02004134 -3.5625 19 C-3.16601796 12.40665049 -1.84322986 6.32958179 0 0 Z " fill="#BB873D" transform="translate(508,451)"/>
<path d="M0 0 C1.78058761 0.01507736 3.5611876 0.02876035 5.34179688 0.04101562 C9.66567507 0.07377208 13.98894799 0.12538458 18.3125 0.1875 C15.40489931 2.55987071 12.75336718 4.6582257 9.3125 6.1875 C9.9725 4.5375 10.6325 2.8875 11.3125 1.1875 C7.20785024 1.29893845 3.10399275 1.42918134 -1 1.5625 C-2.14791016 1.5934375 -3.29582031 1.624375 -4.47851562 1.65625 C-14.05319045 1.9817347 -23.23052959 2.71916261 -32.0625 6.6875 C-33.49722656 7.32171875 -33.49722656 7.32171875 -34.9609375 7.96875 C-35.86070312 8.3709375 -36.76046875 8.773125 -37.6875 9.1875 C-39.35100501 9.8620171 -41.0166761 10.53132189 -42.6875 11.1875 C-32.17139846 -1.08128513 -14.67546999 -0.21724232 0 0 Z " fill="#B97E31" transform="translate(521.6875,409.8125)"/>
<path d="M0 0 C3.62267269 0.82744347 5.46679395 2.83383847 8.03515625 5.46484375 C9.6424126 8.67935644 9.0926381 11.90096911 9.03515625 15.46484375 C6.44938398 15.40470951 3.86928815 15.31767253 1.28515625 15.21484375 C0.55554688 15.20066406 -0.1740625 15.18648438 -0.92578125 15.171875 C-4.46042649 15.01120931 -6.60380431 14.73169899 -9.48046875 12.60546875 C-10.96484375 10.46484375 -10.96484375 10.46484375 -10.96484375 7.46484375 C-9.015531 1.61690549 -6.30975167 -0.29484821 0 0 Z M-8.02734375 3.65234375 C-9.34619891 6.2021304 -8.76235535 7.78230473 -7.96484375 10.46484375 C-7.30484375 10.46484375 -6.64484375 10.46484375 -5.96484375 10.46484375 C-5.96484375 11.12484375 -5.96484375 11.78484375 -5.96484375 12.46484375 C-4.00719992 12.6594108 -2.04869054 12.84528622 -0.08984375 13.02734375 C1.00070312 13.13175781 2.09125 13.23617188 3.21484375 13.34375 C5.98667648 13.69123779 5.98667648 13.69123779 8.03515625 12.46484375 C8.53894654 10.17790152 8.53894654 10.17790152 8.03515625 7.46484375 C5.4618671 4.56989346 3.77576029 2.81558694 -0.0390625 2.046875 C-3.04998371 1.93000005 -5.39597353 2.13731241 -8.02734375 3.65234375 Z " fill="#F4DEB6" transform="translate(552.96484375,370.53515625)"/>
<path d="M0 0 C0.99 0.66 1.98 1.32 3 2 C5.74341518 2.45770675 8.42742471 2.83091338 11.1875 3.125 C11.93708984 3.21136719 12.68667969 3.29773438 13.45898438 3.38671875 C15.30517412 3.59838382 17.15249344 3.80015464 19 4 C19 4.33 19 4.66 19 5 C18.13048706 5.00616333 18.13048706 5.00616333 17.2434082 5.01245117 C14.59875891 5.04549277 11.95638161 5.11614264 9.3125 5.1875 C8.40048828 5.19330078 7.48847656 5.19910156 6.54882812 5.20507812 C0.76130916 5.38393503 0.76130916 5.38393503 -4.01953125 8.55078125 C-4.67308594 9.35902344 -5.32664062 10.16726563 -6 11 C-6.66 11 -7.32 11 -8 11 C-6.83311977 16.63992111 -5.45387201 20.39483731 -2 25 C-5 25 -5 25 -7.1875 23.125 C-9.74408779 18.71709001 -10.04854871 14.97866464 -9 10 C-7.35624498 7.2329265 -5.36118206 5.16585313 -3 3 C-1.99769851 2.0023068 -0.99700152 1.00298952 0 0 Z " fill="#B87D2F" transform="translate(543,382)"/>
<path d="M0 0 C0 0.99 0 1.98 0 3 C1.19882812 3.18175781 1.19882812 3.18175781 2.421875 3.3671875 C3.52015625 3.53476562 4.6184375 3.70234375 5.75 3.875 C6.95269531 4.05675781 8.15539062 4.23851562 9.39453125 4.42578125 C11.52253061 4.76469339 13.64737638 5.12727768 15.76171875 5.54296875 C26.06330932 7.54313159 36.53835941 7.65649178 47 8 C47 8.33 47 8.66 47 9 C31.63613667 9.45126576 17.22577724 9.25200059 2.26513672 5.54003906 C-1.79761083 4.5714254 -5.90014441 3.79400305 -10 3 C-6.59538535 1.23899242 -3.90650339 0 0 0 Z " fill="#B88641" transform="translate(332,583)"/>
<path d="M0 0 C0.66 0.33 1.32 0.66 2 1 C-8.97893429 9.33074914 -21.43838153 16.95367371 -34.59765625 21.19140625 C-37.90891393 22.30592713 -40.99654166 23.81630461 -44.125 25.36328125 C-46 26 -46 26 -49 25 C-45.88958544 22.92639029 -43.05767056 21.81690983 -39.5625 20.5 C-26.42628926 15.38511655 -13.47204888 9.16895529 -1.8984375 1.08203125 C-1.27195312 0.72496094 -0.64546875 0.36789062 0 0 Z " fill="#B87C32" transform="translate(391,555)"/>
<path d="M0 0 C0.66 0.33 1.32 0.66 2 1 C-6.36829763 9.94875758 -15.39041794 17.49881407 -25.28125 24.72314453 C-26.66018773 25.74755424 -27.99466529 26.83168804 -29.3125 27.93359375 C-29.869375 28.28550781 -30.42625 28.63742187 -31 29 C-31.99 28.67 -32.98 28.34 -34 28 C-33.10539062 27.38253906 -32.21078125 26.76507812 -31.2890625 26.12890625 C-23.72144544 20.84963745 -16.75221428 15.30829708 -10 9 C-7.87448884 7.12496995 -5.73547128 5.26660728 -3.59375 3.41015625 C-2.3569701 2.31584855 -1.16771869 1.16771869 0 0 Z " fill="#BC7E32" transform="translate(427,526)"/>
<path d="M0 0 C10.23 0 20.46 0 31 0 C30.67 1.32 30.34 2.64 30 4 C30 3.34 30 2.68 30 2 C28.75605469 2.08378906 27.51210938 2.16757812 26.23046875 2.25390625 C17.39092632 2.80887501 8.80750357 3.28648928 0 2 C0 1.34 0 0.68 0 0 Z " fill="#4D2500" transform="translate(449,388)"/>
<path d="M0 0 C0.66 0.33 1.32 0.66 2 1 C0.89718873 2.27200971 -0.20730769 3.54255853 -1.3125 4.8125 C-1.92738281 5.52019531 -2.54226563 6.22789062 -3.17578125 6.95703125 C-6.44911047 10.6228796 -6.44911047 10.6228796 -8 12 C-8.66 12 -9.32 12 -10 12 C-10.66 13.32 -11.32 14.64 -12 16 C-12.66 15.67 -13.32 15.34 -14 15 C-9.71924631 9.4045986 -5.65596939 4.24197704 0 0 Z " fill="#F3E2C5" transform="translate(532,415)"/>
<path d="M0 0 C11.22 0 22.44 0 34 0 C28.375 4.5 28.375 4.5 25 6 C25.66 4.35 26.32 2.7 27 1 C18.09 1 9.18 1 0 1 C0 0.67 0 0.34 0 0 Z " fill="#C68938" transform="translate(506,410)"/>
<path d="M0 0 C3.29544238 0.8906601 4.73575518 1.63194471 6.75 4.4375 C8.19302508 8.55012147 8.54056172 12.27836139 8.7890625 16.609375 C8.85387713 19.01347777 8.85387713 19.01347777 10 21 C8.68 20.67 7.36 20.34 6 20 C5.97421875 19.20335937 5.9484375 18.40671875 5.921875 17.5859375 C5.5762473 11.12898368 5.19856348 6.98579414 1 2 C0.67 1.34 0.34 0.68 0 0 Z " fill="#F1DDB5" transform="translate(562,368)"/>
<path d="M0 0 C0.99 0.33 1.98 0.66 3 1 C-1.95 5.95 -6.9 10.9 -12 16 C-12.33 15.01 -12.66 14.02 -13 13 C-8.71 8.71 -4.42 4.42 0 0 Z " fill="#3F291A" transform="translate(429,377)"/>
<path d="M0 0 C0.33 0.99 0.66 1.98 1 3 C0.319375 2.835 -0.36125 2.67 -1.0625 2.5 C-7.76124138 1.3597887 -11.6274036 1.8236042 -17.19921875 5.62109375 C-19.32895737 7.25189144 -21.21773497 8.99495184 -23 11 C-22.23292555 6.49717336 -20.07081828 4.32888715 -16.67578125 1.41796875 C-11.48488873 -1.33282539 -5.7001219 -0.50436472 0 0 Z " fill="#F6E4BF" transform="translate(558,363)"/>
<path d="M0 0 C0.33 0 0.66 0 1 0 C0.67 3.63 0.34 7.26 0 11 C-0.66 11 -1.32 11 -2 11 C-2.33 13.97 -2.66 16.94 -3 20 C-3.66 20 -4.32 20 -5 20 C-4.45484328 12.91296261 -2.39081395 6.67203894 0 0 Z " fill="#F0DBB8" transform="translate(513,439)"/>
<path d="M0 0 C0.33 0.99 0.66 1.98 1 3 C-2.96 6.96 -6.92 10.92 -11 15 C-11.66 14.67 -12.32 14.34 -13 14 C-11.02108364 11.85393535 -9.04187901 9.70813786 -7.0625 7.5625 C-6.49853516 6.95083984 -5.93457031 6.33917969 -5.35351562 5.70898438 C-4.81533203 5.12568359 -4.27714844 4.54238281 -3.72265625 3.94140625 C-3.22515869 3.40201416 -2.72766113 2.86262207 -2.21508789 2.30688477 C-1.48918929 1.52614632 -0.75381738 0.75381738 0 0 Z " fill="#382314" transform="translate(249,575)"/>
<path d="M0 0 C0.66 0 1.32 0 2 0 C0.38989473 4.07376031 -2.53822271 6.76507069 -5.625 9.75 C-6.140625 10.25660156 -6.65625 10.76320313 -7.1875 11.28515625 C-8.45383339 12.52803902 -9.7263144 13.76465276 -11 15 C-11.66 14.67 -12.32 14.34 -13 14 C-12.56429688 13.57589844 -12.12859375 13.15179688 -11.6796875 12.71484375 C-7.97374845 9.06505529 -4.51738517 5.34358974 -1.26171875 1.28515625 C-0.84535156 0.86105469 -0.42898438 0.43695313 0 0 Z " fill="#3D291B" transform="translate(411,396)"/>
<path d="M0 0 C0.99 0.33 1.98 0.66 3 1 C1.43902526 2.1063219 -0.12385327 3.20995785 -1.6875 4.3125 C-2.55761719 4.92738281 -3.42773438 5.54226563 -4.32421875 6.17578125 C-11.40042827 11 -11.40042827 11 -14 11 C-14 10.34 -14 9.68 -14 9 C-13.01 9 -12.02 9 -11 9 C-11 8.34 -11 7.68 -11 7 C-10.01 6.67 -9.02 6.34 -8 6 C-7.67 5.34 -7.34 4.68 -7 4 C-5.68 4 -4.36 4 -3 4 C-3 3.34 -3 2.68 -3 2 C-2.01 2 -1.02 2 0 2 C0 1.34 0 0.68 0 0 Z " fill="#BD8941" transform="translate(450,565)"/>
<path d="M0 0 C0 4.33174693 -2.65822583 6.22353653 -5.5 9.1875 C-6.28697266 10.02571289 -6.28697266 10.02571289 -7.08984375 10.88085938 C-8.38661613 12.26015364 -9.69246259 13.63090644 -11 15 C-11.66 14.67 -12.32 14.34 -13 14 C-11.02108364 11.85393535 -9.04187901 9.70813786 -7.0625 7.5625 C-6.49853516 6.95083984 -5.93457031 6.33917969 -5.35351562 5.70898438 C-4.81533203 5.12568359 -4.27714844 4.54238281 -3.72265625 3.94140625 C-3.22515869 3.40201416 -2.72766113 2.86262207 -2.21508789 2.30688477 C-1.48918929 1.52614632 -0.75381738 0.75381738 0 0 Z " fill="#372213" transform="translate(349,465)"/>
<path d="M0 0 C0.66 0 1.32 0 2 0 C0.56835889 3.65938172 -0.98934296 7.23988068 -2.625 10.8125 C-3.29402344 12.27623047 -3.29402344 12.27623047 -3.9765625 13.76953125 C-4.31429687 14.50558594 -4.65203125 15.24164063 -5 16 C-6.24337885 12.26986346 -5.55180675 11.05797481 -4.1875 7.4375 C-3.83042969 6.46683594 -3.47335937 5.49617188 -3.10546875 4.49609375 C-2 2 -2 2 0 0 Z " fill="#BB853A" transform="translate(517,428)"/>
<path d="M0 0 C0 0.66 0 1.32 0 2 C-4.81168676 5.29944235 -9.11264806 7.33642011 -15 7 C-12.66302971 4.66302971 -10.50902101 3.72905946 -7.5 2.375 C-6.03046875 1.70597656 -6.03046875 1.70597656 -4.53125 1.0234375 C-2 0 -2 0 0 0 Z " fill="#F3DFBD" transform="translate(434,578)"/>
<path d="M0 0 C0.33 0 0.66 0 1 0 C1.59720137 5.82271337 -0.471757 9.9209404 -3 15 C-3.66 15 -4.32 15 -5 15 C-1.92482916 4.44191344 -1.92482916 4.44191344 0 0 Z " fill="#F3DEBB" transform="translate(502,497)"/>
<path d="M0 0 C3.98021881 2.16069021 6.97250324 4.62650361 10 8 C10 8.66 10 9.32 10 10 C9.01 10 8.02 10 7 10 C2 4.65116279 2 4.65116279 2 2 C1.34 2 0.68 2 0 2 C0 1.34 0 0.68 0 0 Z " fill="#C0904B" transform="translate(576,392)"/>
<path d="M0 0 C0.66 0.33 1.32 0.66 2 1 C-3.445 4.96 -3.445 4.96 -9 9 C-9.99 8.34 -10.98 7.68 -12 7 C-10.04754815 5.80285445 -8.08785003 4.61751926 -6.125 3.4375 C-5.03445313 2.77621094 -3.94390625 2.11492188 -2.8203125 1.43359375 C-1.88960938 0.96050781 -0.95890625 0.48742187 0 0 Z " fill="#F5E0BF" transform="translate(446,570)"/>
<path d="M0 0 C3.55780196 0.60990891 6.6828589 1.5783681 10 3 C9.67 3.66 9.34 4.32 9 5 C7.68428397 4.7452486 6.37239624 4.47065859 5.0625 4.1875 C4.33160156 4.03667969 3.60070312 3.88585937 2.84765625 3.73046875 C2.23792969 3.48941406 1.62820313 3.24835938 1 3 C0.67 2.01 0.34 1.02 0 0 Z " fill="#BE883B" transform="translate(540,407)"/>
<path d="M0 0 C1.60379341 -0.05416188 3.20811406 -0.09286638 4.8125 -0.125 C5.70582031 -0.14820313 6.59914063 -0.17140625 7.51953125 -0.1953125 C10 0 10 0 13 2 C8.15507803 3.51403812 4.7408989 2.36602172 0 1 C0 0.67 0 0.34 0 0 Z " fill="#C39049" transform="translate(332,587)"/>
<path d="M0 0 C0 3 0 3 -1.53125 4.82421875 C-2.1809375 5.43910156 -2.830625 6.05398438 -3.5 6.6875 C-4.1496875 7.31011719 -4.799375 7.93273437 -5.46875 8.57421875 C-5.9740625 9.04472656 -6.479375 9.51523437 -7 10 C-7.33 9.01 -7.66 8.02 -8 7 C-5.36 4.69 -2.72 2.38 0 0 Z " fill="#E6DED4" transform="translate(285,612)"/>
<path d="M0 0 C1.21236328 0.01353516 1.21236328 0.01353516 2.44921875 0.02734375 C3.37154297 0.04474609 3.37154297 0.04474609 4.3125 0.0625 C4.3125 0.3925 4.3125 0.7225 4.3125 1.0625 C-3.1875 2.5625 -3.1875 2.5625 -10.6875 4.0625 C-7.4284026 0.49301238 -4.73606476 -0.06863862 0 0 Z " fill="#A8762A" transform="translate(531.6875,374.9375)"/>
<path d="M0 0 C0.75 1.5625 0.75 1.5625 1 4 C-0.13084437 6.50286409 -1.52139516 8.67007722 -3 11 C-3.66 11 -4.32 11 -5 11 C-3.55049545 7.2089881 -1.84827434 3.6125362 0 0 Z " fill="#F5E2C1" transform="translate(494,517)"/>
<path d="M0 0 C0 3 0 3 -1.3125 4.38671875 C-2.875 5.59114583 -4.4375 6.79557292 -6 8 C-4.73058503 4.08597051 -3.48832306 2.20927127 0 0 Z " fill="#DFE0DA" transform="translate(701,574)"/>
<path d="M0 0 C-2.97 1.65 -5.94 3.3 -9 5 C-8.25 2.5625 -8.25 2.5625 -7 0 C-4.07083439 -1.32284898 -3.12177395 -1.04059132 0 0 Z " fill="#BD8D47" transform="translate(540,411)"/>
<path d="M0 0 C0.66 0.33 1.32 0.66 2 1 C1.0479279 2.00596297 0.08812654 3.00461563 -0.875 4 C-1.40867188 4.556875 -1.94234375 5.11375 -2.4921875 5.6875 C-4 7 -4 7 -6 7 C-4.60667426 3.63279613 -3.0210714 2.0140476 0 0 Z " fill="#E5DED3" transform="translate(245,651)"/>
</svg>
