<svg xmlns="http://www.w3.org/2000/svg" width="1024" height="1024" viewBox="0 0 1024 1024">
<g fill-rule="evenodd">
<path d="M 788.47 639.47 C782.07,641.13 767.87,641.36 761.62,639.89 C753.82,638.06 744.84,632.88 738.62,626.62 C731.45,619.41 727.63,612.79 725.54,603.91 C717.79,571.03 740.95,542.00 774.95,542.00 C785.74,542.00 794.20,544.39 802.61,549.82 C821.47,562.02 829.35,586.74 821.49,609.04 C816.36,623.57 803.30,635.60 788.47,639.47 ZM 580.89 636.21 C580.04,637.80 578.37,638.00 566.09,638.00 C554.64,638.00 552.02,637.72 550.92,636.41 C549.55,634.75 540.35,611.50 524.92,570.66 C517.82,551.86 516.16,546.51 517.08,545.41 C517.98,544.32 521.47,544.00 532.49,544.00 L 546.73 544.00 L 555.50 569.75 C560.33,583.91 564.69,596.62 565.21,598.00 C566.00,600.12 567.46,596.50 575.02,573.66 C579.91,558.90 584.44,546.17 585.10,545.38 C586.05,544.24 589.03,544.00 599.88,544.22 C611.53,544.46 613.52,544.73 613.79,546.14 C614.20,548.29 584.68,629.13 580.89,636.21 ZM 690.96 636.07 C690.03,637.82 688.77,638.00 677.59,638.00 C667.33,638.00 665.01,637.72 663.87,636.35 C662.07,634.17 661.25,549.27 663.00,546.00 C664.04,544.06 664.86,543.96 677.30,544.22 L 690.50 544.50 L 691.50 554.16 L 694.50 550.99 C699.68,545.51 704.50,543.63 713.50,543.56 L 721.50 543.50 L 721.50 555.83 C721.50,569.91 720.93,571.00 713.56,571.01 C706.91,571.01 702.12,572.88 698.11,577.00 C692.54,582.75 692.00,585.78 692.00,611.43 C692.00,625.17 691.59,634.90 690.96,636.07 ZM 648.89 636.64 C648.04,637.65 644.63,638.00 635.50,638.00 C626.37,638.00 622.96,637.65 622.11,636.64 C621.30,635.65 621.05,622.56 621.24,589.89 L 621.50 544.50 L 649.50 544.50 L 649.76 589.89 C649.95,622.56 649.70,635.65 648.89,636.64 ZM 765.27 611.91 C773.50,615.98 784.62,613.81 790.33,607.02 C794.31,602.29 796.00,597.52 795.98,591.13 C795.91,574.15 779.91,564.17 764.35,571.42 C754.82,575.86 750.10,587.12 753.39,597.58 C755.47,604.16 759.53,609.06 765.27,611.91 ZM 766.93 525.50 L 760.19 532.00 L 750.72 532.00 C741.07,532.00 738.05,530.88 739.27,527.76 C739.55,527.07 745.06,520.54 751.52,513.25 L 763.28 500.00 L 784.63 500.00 L 795.57 511.65 C808.81,525.77 810.22,527.73 808.90,530.18 C808.08,531.73 806.62,532.00 799.21,531.99 C789.51,531.99 788.91,531.72 780.50,523.76 C777.75,521.15 775.09,519.02 774.58,519.01 C774.07,519.00 770.63,521.92 766.93,525.50 ZM 642.17 531.97 C636.86,533.44 633.05,533.20 628.42,531.10 C615.22,525.11 614.95,506.83 627.97,500.25 C638.36,495.00 649.39,499.66 652.59,510.65 C653.79,514.78 653.88,516.74 653.01,519.96 C651.56,525.35 646.72,530.70 642.17,531.97 Z" fill="rgb(23,23,25)"/>
<path d="M 230.14 664.45 C226.26,666.43 217.65,667.32 213.99,666.12 C203.03,662.53 196.69,654.28 196.62,643.50 C196.57,635.27 198.39,632.20 213.56,614.99 C228.39,598.15 303.90,514.57 321.50,495.50 C328.11,488.35 335.76,480.00 338.50,476.95 C341.25,473.90 350.48,463.74 359.00,454.37 C367.52,445.01 378.06,433.33 382.41,428.42 C405.30,402.59 427.68,378.81 433.43,374.20 C448.09,362.46 464.71,356.10 482.96,355.26 C492.62,354.82 495.88,355.08 503.00,356.86 C513.88,359.59 524.54,364.83 530.67,370.48 C535.26,374.70 535.37,374.92 532.91,374.96 C531.48,374.98 528.11,375.67 525.41,376.48 C521.81,377.57 520.40,377.65 520.11,376.80 C518.94,373.37 511.46,366.98 506.78,365.43 C496.66,362.07 485.26,367.52 481.42,377.56 L 479.73 382.00 L 463.81 382.00 C451.55,382.00 447.23,382.35 444.97,383.52 C438.98,386.61 436.67,397.50 442.00,397.50 C443.98,397.50 444.57,396.93 444.81,394.77 C444.99,393.27 446.29,391.13 447.70,390.02 C450.01,388.20 451.73,388.00 464.93,388.00 L 479.60 388.00 L 480.89 391.57 C482.60,396.30 487.42,401.66 492.12,404.06 C498.94,407.54 509.11,406.04 514.83,400.70 C517.89,397.85 521.00,391.75 521.00,388.61 C521.00,384.80 525.31,382.00 531.20,382.00 C536.31,382.00 540.00,383.31 540.00,385.11 C540.00,385.69 538.65,387.50 537.00,389.15 C534.48,391.67 534.00,392.94 534.00,397.04 C534.00,401.04 534.54,402.55 536.99,405.33 L 539.97 408.73 L 521.74 409.27 C500.98,409.89 492.59,411.68 482.91,417.56 C469.77,425.54 464.36,435.20 460.51,457.53 C459.13,465.58 456.87,475.52 455.49,479.61 C448.44,500.62 433.15,522.15 413.23,539.11 C388.51,560.17 354.48,577.30 320.02,586.06 L 308.55 588.98 L 293.52 603.76 C241.93,654.52 233.16,662.91 230.14,664.45 ZM 510.03 395.20 C506.54,398.69 505.78,399.00 500.65,399.00 C495.88,399.00 494.58,398.57 491.67,396.01 C489.55,394.15 487.80,391.37 487.04,388.63 C485.95,384.75 486.04,383.70 487.78,379.78 C490.46,373.72 495.53,370.57 501.55,371.25 C507.53,371.93 510.80,374.30 513.19,379.69 C515.89,385.80 514.98,390.25 510.03,395.20 Z" fill="rgb(61,29,8)"/>
<path d="M 314.48 587.47 L 320.02 586.06 C354.48,577.30 388.51,560.17 413.23,539.11 C433.15,522.15 448.44,500.62 455.49,479.61 C456.87,475.52 459.13,465.58 460.51,457.53 C464.36,435.20 469.77,425.54 482.91,417.56 C492.59,411.68 500.98,409.89 521.74,409.27 L 539.97 408.73 L 536.99 405.33 C534.54,402.55 534.00,401.04 534.00,397.04 C534.00,392.94 534.48,391.67 537.00,389.15 C538.65,387.50 540.00,385.69 540.00,385.11 C540.00,383.31 536.31,382.00 531.20,382.00 C525.31,382.00 521.00,384.80 521.00,388.61 C521.00,391.75 517.89,397.85 514.83,400.70 C509.11,406.04 498.94,407.54 492.12,404.06 C487.42,401.66 482.60,396.30 480.89,391.57 L 479.60 388.00 L 464.93 388.00 C451.73,388.00 450.01,388.20 447.70,390.02 C446.29,391.13 444.99,393.27 444.81,394.77 C444.57,396.93 443.98,397.50 442.00,397.50 C436.67,397.50 438.98,386.61 444.97,383.52 C447.23,382.35 451.55,382.00 463.81,382.00 L 479.73 382.00 L 481.42 377.56 C485.26,367.52 496.66,362.07 506.78,365.43 C511.46,366.98 518.94,373.37 520.11,376.80 C520.40,377.65 521.81,377.57 525.41,376.48 C528.11,375.67 531.48,374.98 532.91,374.96 C535.37,374.92 535.26,374.70 530.67,370.48 C525.39,365.62 516.77,361.06 507.53,358.14 C516.05,360.75 522.96,364.30 529.93,369.57 C534.76,373.23 536.48,374.07 536.84,372.97 C537.75,370.23 543.16,366.03 547.17,364.95 C558.06,362.02 568.00,370.16 568.00,382.00 L 568.00 387.60 L 572.64 389.85 C575.19,391.09 579.17,393.95 581.48,396.20 L 585.68 400.29 L 581.97 403.64 C573.20,411.57 560.00,414.58 547.59,411.49 L 540.31 409.68 L 533.53 414.51 C517.65,425.85 509.57,442.50 506.95,469.33 C504.85,490.74 500.11,507.02 491.42,522.67 C483.20,537.46 468.02,554.38 452.58,565.94 C443.37,572.83 426.12,582.06 415.98,585.51 C398.02,591.61 377.17,594.00 358.50,592.09 C348.37,591.05 328.55,587.08 326.17,585.61 C325.62,585.26 321.46,585.84 316.94,586.90 ZM 510.03 395.20 C514.98,390.25 515.89,385.80 513.19,379.69 C510.80,374.30 507.53,371.93 501.55,371.25 C495.53,370.57 490.46,373.72 487.78,379.78 C486.04,383.70 485.95,384.75 487.04,388.63 C487.80,391.37 489.55,394.15 491.67,396.01 C494.58,398.57 495.88,399.00 500.65,399.00 C505.78,399.00 506.54,398.69 510.03,395.20 ZM 552.79 385.25 C553.10,385.26 553.40,385.28 553.70,385.30 C558.56,385.54 560.39,385.64 561.14,384.78 C561.64,384.22 561.68,383.25 561.81,381.64 C562.07,378.52 561.57,377.37 558.66,374.46 C554.07,369.87 549.17,369.67 544.92,373.92 C541.46,377.38 541.31,378.85 544.04,382.32 C545.80,384.57 546.97,384.96 552.79,385.25 ZM 494.01 355.23 C491.08,354.99 487.83,355.04 482.96,355.26 C487.85,355.04 491.09,354.99 494.01,355.23 Z" fill="rgb(193,129,37)"/>
</g>
</svg>
